<svg width="500" height="500" viewBox="0 0 500 500" fill="none" xmlns="http://www.w3.org/2000/svg">
<path d="M147.298 184H66.3701V315H147.297C155.753 315 162.608 308.157 162.608 299.717V199.283C162.608 190.843 155.753 184 147.298 184ZM117.601 280.067L113.892 268.099H97.5888L93.9663 280.067H76.8005L98.1066 218.933H113.46L134.68 280.067H117.601Z" fill="#F3F4F6"/>
<path d="M105.784 237.962L100.09 256.904H111.217L105.784 237.962Z" fill="#F3F4F6"/>
<path d="M40.1233 184V207.726H33.5616C29.9378 207.726 27 210.658 27 214.276C27 217.893 29.9378 220.826 33.5616 220.826H40.1233V242.659H33.5616C29.9378 242.659 27 245.592 27 249.209C27 252.827 29.9378 255.759 33.5616 255.759H40.1233V277.593H33.5616C29.9378 277.593 27 280.525 27 284.142C27 287.76 29.9378 290.692 33.5616 290.692H40.1233V315H53.2465V184H40.1233Z" fill="#F3F4F6"/>
<path d="M198.075 258.724V237.505H209.725V274.796H198.61V267.877H198.221C197.394 270.142 195.983 271.947 193.989 273.291C192.01 274.618 189.619 275.281 186.814 275.281C184.268 275.281 182.031 274.707 180.101 273.558C178.188 272.392 176.696 270.766 175.626 268.678C174.556 266.574 174.021 264.105 174.021 261.273V237.505H185.646V259.015C185.663 261.071 186.206 262.689 187.276 263.871C188.346 265.052 189.805 265.643 191.654 265.643C192.854 265.643 193.94 265.376 194.913 264.842C195.886 264.308 196.656 263.531 197.223 262.511C197.807 261.475 198.091 260.213 198.075 258.724Z" fill="#F3F4F6"/>
<path d="M227.236 237.505L233.487 249.911L239.98 237.505H251.752L241.269 256.15L252.117 274.796H240.418L233.487 262.341L226.725 274.796H214.856L225.777 256.15L215.391 237.505H227.236Z" fill="#F3F4F6"/>
<path d="M257.291 274.796V237.505H268.917V274.796H257.291ZM263.128 233.086C261.458 233.086 260.031 232.536 258.848 231.435C257.68 230.335 257.096 229.015 257.096 227.478C257.096 225.94 257.688 224.621 258.872 223.521C260.056 222.42 261.466 221.87 263.104 221.87C264.774 221.87 266.193 222.42 267.36 223.521C268.544 224.621 269.136 225.94 269.136 227.478C269.136 229.015 268.544 230.335 267.36 231.435C266.193 232.536 264.782 233.086 263.128 233.086Z" fill="#F3F4F6"/>
<path d="M303.593 239.884C303.414 238.071 302.669 236.663 301.355 235.66C300.058 234.64 298.218 234.13 295.834 234.13C294.245 234.13 292.924 234.34 291.87 234.761C290.816 235.182 290.013 235.757 289.462 236.485C288.927 237.213 288.66 238.039 288.66 238.961C288.627 239.722 288.781 240.402 289.122 241.001C289.462 241.583 289.957 242.093 290.605 242.53C291.27 242.967 292.056 243.348 292.964 243.671C293.889 243.995 294.91 244.278 296.029 244.521L300.358 245.516C302.774 246.051 304.914 246.755 306.779 247.629C308.66 248.486 310.249 249.53 311.546 250.761C312.859 251.991 313.848 253.407 314.513 255.009C315.194 256.612 315.543 258.408 315.559 260.399C315.543 263.539 314.748 266.234 313.175 268.483C311.603 270.717 309.349 272.441 306.414 273.655C303.496 274.852 299.969 275.451 295.834 275.451C291.683 275.451 288.068 274.828 284.987 273.582C281.923 272.319 279.531 270.434 277.812 267.925C276.11 265.4 275.234 262.228 275.185 258.408H286.471C286.584 260.01 287.03 261.354 287.808 262.438C288.587 263.506 289.649 264.316 290.994 264.866C292.34 265.416 293.905 265.692 295.688 265.692C297.326 265.692 298.729 265.465 299.896 265.012C301.08 264.559 301.988 263.935 302.62 263.142C303.252 262.349 303.577 261.427 303.593 260.375C303.577 259.403 303.277 258.578 302.693 257.898C302.109 257.218 301.226 256.628 300.042 256.126C298.858 255.624 297.358 255.163 295.542 254.742L290.313 253.504C286.017 252.517 282.628 250.922 280.147 248.721C277.682 246.52 276.45 243.534 276.45 239.763C276.45 236.704 277.277 234.025 278.931 231.727C280.601 229.412 282.903 227.615 285.838 226.337C288.773 225.042 292.121 224.395 295.883 224.395C299.71 224.395 303.042 225.042 305.879 226.337C308.717 227.632 310.914 229.444 312.47 231.775C314.043 234.106 314.846 236.809 314.878 239.884H303.593Z" fill="#F3F4F6"/>
<path d="M342.635 237.505V246.099H319.238V237.505H342.635ZM324.223 228.57H335.849V263.118C335.849 263.879 335.971 264.486 336.214 264.939C336.473 265.392 336.83 265.716 337.284 265.91C337.754 266.104 338.306 266.201 338.938 266.201C339.408 266.201 339.894 266.161 340.397 266.08C340.916 265.983 341.305 265.902 341.565 265.837L343.316 274.262C342.764 274.44 341.978 274.642 340.957 274.869C339.951 275.111 338.735 275.265 337.308 275.33C334.568 275.443 332.217 275.111 330.255 274.334C328.293 273.558 326.785 272.344 325.731 270.693C324.694 269.026 324.191 266.938 324.223 264.429V228.57Z" fill="#F3F4F6"/>
<path d="M372.909 258.724V237.505H384.559V274.796H373.444V267.877H373.055C372.228 270.142 370.817 271.947 368.823 273.291C366.845 274.618 364.453 275.281 361.648 275.281C359.102 275.281 356.865 274.707 354.935 273.558C353.022 272.392 351.53 270.766 350.46 268.678C349.39 266.574 348.855 264.105 348.855 261.273V237.505H360.481V259.015C360.497 261.071 361.04 262.689 362.11 263.871C363.18 265.052 364.639 265.643 366.488 265.643C367.688 265.643 368.774 265.376 369.747 264.842C370.72 264.308 371.49 263.531 372.057 262.511C372.641 261.475 372.925 260.213 372.909 258.724Z" fill="#F3F4F6"/>
<path d="M405.84 275.354C403.083 275.354 400.57 274.634 398.3 273.193C396.03 271.753 394.222 269.616 392.877 266.784C391.547 263.935 390.882 260.399 390.882 256.175C390.882 251.804 391.571 248.203 392.95 245.371C394.344 242.538 396.176 240.442 398.446 239.083C400.716 237.707 403.165 237.019 405.791 237.019C407.769 237.019 409.456 237.359 410.85 238.039C412.261 238.719 413.412 239.585 414.304 240.637C415.212 241.672 415.901 242.749 416.371 243.866H416.639V225.074H428.264V274.796H416.76V268.775H416.371C415.868 269.892 415.155 270.952 414.231 271.955C413.323 272.959 412.171 273.776 410.777 274.407C409.383 275.039 407.737 275.354 405.84 275.354ZM409.829 266.25C411.32 266.25 412.585 265.837 413.623 265.012C414.677 264.17 415.479 262.997 416.03 261.491C416.598 259.97 416.882 258.19 416.882 256.15C416.882 254.095 416.598 252.314 416.03 250.809C415.479 249.304 414.677 248.147 413.623 247.337C412.585 246.528 411.32 246.123 409.829 246.123C408.321 246.123 407.048 246.536 406.01 247.362C404.972 248.187 404.178 249.352 403.627 250.858C403.092 252.363 402.824 254.127 402.824 256.15C402.824 258.19 403.092 259.97 403.627 261.491C404.178 262.997 404.972 264.17 406.01 265.012C407.064 265.837 408.337 266.25 409.829 266.25Z" fill="#F3F4F6"/>
<path d="M443.131 288.78C441.72 288.78 440.39 288.667 439.142 288.44C437.893 288.23 436.831 287.954 435.956 287.615L438.534 279.142C439.701 279.514 440.763 279.732 441.72 279.797C442.677 279.862 443.503 279.7 444.201 279.311C444.898 278.939 445.441 278.268 445.83 277.296L446.292 276.107L433.013 237.505H445.198L452.227 264.235H452.616L459.718 237.505H472L457.869 278.437C457.172 280.461 456.207 282.249 454.975 283.803C453.743 285.373 452.162 286.595 450.232 287.469C448.303 288.343 445.936 288.78 443.131 288.78Z" fill="#F3F4F6"/>
</svg>
